<svg width="173" height="78" viewBox="0 0 173 78" fill="none" xmlns="http://www.w3.org/2000/svg">
<path d="M69.345 19.5166C69.5881 19.5166 69.7096 19.6353 69.7096 19.8728C69.7096 19.9824 69.6882 20.092 69.6453 20.2016L62.5031 39.2984C62.4173 39.5176 62.3172 39.6638 62.2028 39.7368C62.1027 39.8099 61.9383 39.8464 61.7095 39.8464H58.235C58.0062 39.8464 57.8346 39.8099 57.7202 39.7368C57.6201 39.6638 57.5558 39.5176 57.5272 39.2984L54.5673 20.1742C54.553 20.1194 54.5459 20.0372 54.5459 19.9276C54.5459 19.6536 54.6746 19.5166 54.932 19.5166H59.1572C59.2859 19.5166 59.3788 19.5714 59.436 19.681C59.4932 19.7906 59.5361 19.9732 59.5647 20.229L61.109 32.0652C61.1376 32.2296 61.1662 32.3118 61.1948 32.3118C61.2377 32.3118 61.2806 32.2387 61.3235 32.0926L65.3986 19.955C65.4558 19.7906 65.5201 19.681 65.5916 19.6262C65.6774 19.5531 65.7918 19.5166 65.9348 19.5166H69.345Z" fill="#143157"/>
<path d="M70.1595 19.9824C70.1738 19.7815 70.2024 19.6536 70.2453 19.5988C70.3025 19.544 70.3955 19.5166 70.5241 19.5166H82.1918C82.4063 19.5166 82.5136 19.681 82.5136 20.0098C82.5136 20.1194 82.5064 20.2016 82.4921 20.2564L82.1275 23.4346C82.0989 23.6538 82.0489 23.8091 81.9774 23.9004C81.9059 23.9735 81.7772 24.01 81.5913 24.01H74.9424C74.8137 24.01 74.7136 24.0465 74.6422 24.1196C74.585 24.1744 74.5492 24.3022 74.5349 24.5032L74.2561 27.0238L74.2346 27.2156C74.2346 27.307 74.2489 27.3709 74.2775 27.4074C74.3204 27.4257 74.3919 27.4348 74.492 27.4348H78.5457C78.6887 27.4348 78.7816 27.4714 78.8245 27.5444C78.8674 27.6175 78.8746 27.7362 78.846 27.9006L78.4599 31.4898C78.4456 31.636 78.417 31.7364 78.3741 31.7912C78.3312 31.8277 78.2454 31.846 78.1167 31.846H73.9773C73.8772 31.846 73.8057 31.8825 73.7628 31.9556C73.7199 32.0104 73.6841 32.12 73.6555 32.2844L73.3553 34.9969V35.1338C73.3553 35.28 73.4053 35.353 73.5054 35.353H80.6476C80.7906 35.353 80.8835 35.3896 80.9264 35.4626C80.9693 35.5357 80.9765 35.6727 80.9479 35.8736L80.5832 39.408C80.5546 39.5724 80.5117 39.6912 80.4546 39.7642C80.3974 39.819 80.283 39.8464 80.1114 39.8464H68.5724C68.3865 39.8464 68.2507 39.8008 68.1649 39.7094C68.0791 39.5998 68.0362 39.4446 68.0362 39.2437L68.0576 38.9971L70.1595 19.9824Z" fill="#143157"/>
<path d="M95.2729 39.1067C95.3015 39.198 95.3158 39.3076 95.3158 39.4354C95.3158 39.7094 95.18 39.8464 94.9083 39.8464H90.7474C90.5901 39.8464 90.4686 39.8008 90.3828 39.7094C90.297 39.5998 90.2327 39.408 90.1898 39.1341L88.9458 32.0652C88.9172 31.9556 88.8814 31.8825 88.8385 31.846C88.8099 31.7912 88.7384 31.7638 88.6241 31.7638H87.3372C87.2228 31.7638 87.1441 31.7912 87.1012 31.846C87.0584 31.9008 87.0298 31.983 87.0155 32.0926L86.2219 39.2163C86.1933 39.4902 86.1218 39.6638 86.0074 39.7368C85.9073 39.8099 85.7214 39.8464 85.4498 39.8464H81.8465C81.4747 39.8464 81.3174 39.5633 81.3746 38.9971L83.4765 19.9824C83.4908 19.7815 83.5194 19.6536 83.5623 19.5988C83.6195 19.544 83.7125 19.5166 83.8412 19.5166H91.0048C92.9065 19.5166 94.3793 19.9824 95.4231 20.9139C96.4812 21.8272 97.0102 23.1058 97.0102 24.7498C97.0102 26.0832 96.7028 27.3161 96.088 28.4486C95.4874 29.5811 94.701 30.3939 93.7287 30.8871C93.5428 30.9784 93.4284 31.0606 93.3855 31.1336C93.3569 31.2067 93.3569 31.3072 93.3855 31.435L95.2729 39.1067ZM89.9109 27.6814C90.4972 27.6814 90.9833 27.4257 91.3694 26.9142C91.7698 26.4028 91.9699 25.8092 91.9699 25.1333C91.9699 24.6219 91.8198 24.2383 91.5195 23.9826C91.2336 23.7086 90.8618 23.5716 90.4042 23.5716H88.2165C88.1165 23.5716 88.045 23.6081 88.0021 23.6812C87.9592 23.7543 87.9234 23.9004 87.8948 24.1196L87.5302 27.2704V27.4074C87.5302 27.517 87.5445 27.5901 87.5731 27.6266C87.616 27.6631 87.6803 27.6814 87.7661 27.6814H89.9109Z" fill="#143157"/>
<path d="M96.1578 39.8464C95.9433 39.8464 95.7932 39.8008 95.7074 39.7094C95.6216 39.5998 95.5859 39.408 95.6002 39.1341L95.7289 37.7641C95.7575 37.5084 95.8004 37.2892 95.8576 37.1066C95.929 36.9239 96.0577 36.6864 96.2436 36.3942L104.222 24.3388C104.337 24.1561 104.394 24.0648 104.394 24.0648C104.394 24.0465 104.33 24.0374 104.201 24.0374H98.5171C98.3455 24.0374 98.2168 23.9643 98.131 23.8182C98.0452 23.6721 98.0167 23.4711 98.0452 23.2154L98.4099 19.9276C98.4242 19.7449 98.4528 19.6353 98.4957 19.5988C98.5528 19.544 98.6386 19.5166 98.753 19.5166H111.472C111.715 19.5166 111.815 19.7175 111.772 20.1194L111.6 21.6263C111.572 21.8272 111.536 22.0007 111.493 22.1469C111.45 22.293 111.357 22.4848 111.214 22.7222L102.935 35.0517C102.878 35.1247 102.85 35.1886 102.85 35.2434C102.864 35.28 102.907 35.2982 102.978 35.2982H109.606C109.763 35.2982 109.856 35.3348 109.885 35.4078C109.927 35.4626 109.942 35.5814 109.927 35.764L109.52 39.408C109.491 39.5724 109.448 39.6912 109.391 39.7642C109.334 39.819 109.22 39.8464 109.048 39.8464H96.1578Z" fill="#143157"/>
<path d="M124.724 31.983C124.395 34.9786 123.587 37.0883 122.3 38.3121C121.027 39.5176 119.304 40.1204 117.131 40.1204C114.958 40.1204 113.385 39.5633 112.413 38.4491C111.44 37.3166 110.954 35.6453 110.954 33.4351C110.954 32.8324 111.004 32.0561 111.104 31.1062L112.327 19.9824C112.341 19.7815 112.37 19.6536 112.413 19.5988C112.47 19.544 112.563 19.5166 112.691 19.5166H116.766C116.895 19.5166 116.995 19.5988 117.067 19.7632C117.153 19.9093 117.181 20.0737 117.153 20.2564L115.866 32.0926C115.808 32.6771 115.78 33.0698 115.78 33.2707C115.78 34.1658 115.937 34.8051 116.252 35.1886C116.566 35.5722 117.031 35.764 117.646 35.764C118.432 35.764 119.104 35.4444 119.662 34.8051C120.234 34.1475 120.599 33.1063 120.756 31.6816L122.043 19.9824C122.057 19.7815 122.086 19.6536 122.128 19.5988C122.186 19.544 122.279 19.5166 122.407 19.5166H125.624C125.753 19.5166 125.853 19.5988 125.925 19.7632C126.011 19.9093 126.039 20.0737 126.011 20.2564L124.724 31.983Z" fill="#143157"/>
<path d="M131.556 19.5166C131.799 19.5166 131.899 19.7632 131.856 20.2564L129.776 39.2163C129.747 39.4902 129.69 39.6638 129.604 39.7368C129.518 39.8099 129.347 39.8464 129.089 39.8464H125.357C125.057 39.8464 124.907 39.6546 124.907 39.271L124.928 38.9971L127.03 19.9824C127.044 19.7815 127.073 19.6536 127.116 19.5988C127.173 19.544 127.266 19.5166 127.395 19.5166H131.556Z" fill="#143157"/>
<path d="M131.299 39.8464C131.171 39.8464 131.078 39.819 131.021 39.7642C130.963 39.6912 130.935 39.5724 130.935 39.408C130.935 39.335 130.949 39.1706 130.978 38.9149L133.058 19.9824C133.073 19.7632 133.101 19.6353 133.144 19.5988C133.201 19.544 133.308 19.5166 133.466 19.5166H139.471C139.786 19.5166 139.979 19.7267 140.05 20.1468L141.337 28.8048C141.337 28.9143 141.366 28.9691 141.423 28.9691C141.466 28.9691 141.509 28.9143 141.552 28.8048L144.576 20.1742C144.647 19.9184 144.726 19.7449 144.812 19.6536C144.898 19.5623 145.012 19.5166 145.155 19.5166H151.503C151.732 19.5166 151.825 19.6627 151.782 19.955L149.659 39.2163C149.63 39.4902 149.573 39.6638 149.487 39.7368C149.416 39.8099 149.251 39.8464 148.994 39.8464H145.369C145.169 39.8464 145.019 39.8099 144.919 39.7368C144.833 39.6455 144.79 39.4902 144.79 39.271C144.79 39.1615 144.797 39.0701 144.812 38.9971L146.141 26.969V26.8594C146.141 26.7864 146.127 26.7499 146.099 26.7499C146.041 26.7499 145.984 26.8412 145.927 27.0238L141.444 39.4902C141.387 39.6364 141.323 39.7368 141.251 39.7916C141.18 39.8282 141.08 39.8464 140.951 39.8464H138.699C138.556 39.8464 138.449 39.8099 138.377 39.7368C138.306 39.6455 138.249 39.472 138.206 39.2163L136.468 27.106C136.426 26.9051 136.368 26.8047 136.297 26.8047C136.24 26.8047 136.197 26.8868 136.168 27.0512L134.796 39.408C134.781 39.5907 134.738 39.7094 134.667 39.7642C134.61 39.819 134.51 39.8464 134.367 39.8464H131.299Z" fill="#143157"/>
<path d="M65.7376 42.0616C65.9377 42.0616 66.0235 42.2077 65.9949 42.5L63.8287 62.0626C63.8144 62.1905 63.7715 62.2818 63.7 62.3366C63.6428 62.3731 63.5427 62.3914 63.3997 62.3914H60.4614C60.3613 62.3914 60.2755 62.3549 60.204 62.2818C60.1325 62.1905 60.0467 62.0444 59.9466 61.8434L55.1208 51.6237C55.0779 51.5324 55.035 51.4867 54.9921 51.4867C54.9063 51.4867 54.8563 51.6055 54.842 51.8429L53.7267 61.8708C53.7124 62.09 53.6695 62.2361 53.598 62.3092C53.5408 62.364 53.4121 62.3914 53.2119 62.3914H50.1234C49.8518 62.3914 49.7374 62.1539 49.7803 61.679L51.9036 42.5274C51.9179 42.3264 51.9537 42.1986 52.0108 42.1438C52.068 42.089 52.1753 42.0616 52.3326 42.0616H55.8286C55.9859 42.0616 56.1074 42.1164 56.1932 42.226C56.2933 42.3173 56.3934 42.4726 56.4935 42.6918L60.6758 51.7881C60.7473 51.9342 60.8188 52.0073 60.8903 52.0073C60.9332 52.0073 60.969 51.9799 60.9976 51.9251C61.0404 51.852 61.069 51.7607 61.0833 51.6511L62.0914 42.4726C62.1057 42.2899 62.1414 42.1803 62.1986 42.1438C62.2558 42.089 62.3631 42.0616 62.5204 42.0616H65.7376Z" fill="#143157"/>
<path d="M64.5524 62.3914C64.3808 62.3914 64.295 62.3001 64.295 62.1174C64.295 61.9713 64.3737 61.679 64.5309 61.2407L71.8018 42.5548C71.8876 42.3538 71.9877 42.226 72.1021 42.1712C72.2308 42.0981 72.4023 42.0616 72.6168 42.0616H76.8421C77.0137 42.0616 77.1352 42.1438 77.2067 42.3082C77.2782 42.4543 77.3354 42.6644 77.3783 42.9383L80.4882 61.5968C80.5025 61.6516 80.5097 61.7338 80.5097 61.8434C80.5097 62.2087 80.3953 62.3914 80.1665 62.3914H75.9627C75.7625 62.3914 75.6267 62.1905 75.5552 61.7886L75.0619 58.6926C75.0476 58.6013 75.019 58.5373 74.9761 58.5008C74.9475 58.4643 74.8832 58.446 74.7831 58.446H70.279C70.1789 58.446 70.1003 58.4734 70.0431 58.5282C69.9859 58.583 69.9287 58.6743 69.8715 58.8022L68.5846 62.1174C68.5417 62.227 68.4845 62.3001 68.413 62.3366C68.3558 62.3731 68.2557 62.3914 68.1127 62.3914H64.5524ZM74.204 53.7882C74.4471 53.7882 74.5328 53.6056 74.4614 53.2402L73.6892 48.6647C73.6749 48.482 73.6249 48.3907 73.5391 48.3907C73.4819 48.3907 73.4175 48.4729 73.3461 48.6373L71.5659 53.3498C71.523 53.4594 71.5015 53.5508 71.5015 53.6238C71.5015 53.7334 71.5873 53.7882 71.7589 53.7882H74.204Z" fill="#143157"/>
<path d="M95.0616 42.0616C95.3047 42.0616 95.4263 42.1803 95.4263 42.4178C95.4263 42.5274 95.4048 42.637 95.3619 42.7465L88.2197 61.8434C88.1339 62.0626 88.0338 62.2087 87.9195 62.2818C87.8194 62.3549 87.6549 62.3914 87.4262 62.3914H83.9516C83.7228 62.3914 83.5512 62.3549 83.4368 62.2818C83.3367 62.2087 83.2724 62.0626 83.2438 61.8434L80.284 42.7192C80.2697 42.6644 80.2625 42.5822 80.2625 42.4726C80.2625 42.1986 80.3912 42.0616 80.6486 42.0616H84.8738C85.0025 42.0616 85.0955 42.1164 85.1527 42.226C85.2099 42.3356 85.2528 42.5182 85.2814 42.7739L86.8256 54.6102C86.8542 54.7746 86.8828 54.8568 86.9114 54.8568C86.9543 54.8568 86.9972 54.7837 87.0401 54.6376L91.1152 42.5C91.1724 42.3356 91.2367 42.226 91.3082 42.1712C91.394 42.0981 91.5084 42.0616 91.6514 42.0616H95.0616Z" fill="#143157"/>
<path d="M100.402 42.0616C100.645 42.0616 100.745 42.3082 100.702 42.8013L98.6215 61.7612C98.5929 62.0352 98.5357 62.2087 98.4499 62.2818C98.3641 62.3549 98.1925 62.3914 97.9352 62.3914H94.2032C93.9029 62.3914 93.7528 62.1996 93.7528 61.816L93.7743 61.542L95.8762 42.5274C95.8905 42.3264 95.919 42.1986 95.9619 42.1438C96.0191 42.089 96.1121 42.0616 96.2408 42.0616H100.402Z" fill="#143157"/>
<path d="M106.88 62.6654C105.522 62.6654 104.342 62.3092 103.341 61.5968C102.355 60.8662 101.597 59.8433 101.068 58.5282C100.539 57.2131 100.274 55.6879 100.274 53.9526C100.274 51.7059 100.646 49.6601 101.389 47.8153C102.147 45.9522 103.198 44.4818 104.542 43.4041C105.886 42.3264 107.409 41.7876 109.111 41.7876C110.369 41.7876 111.463 42.089 112.392 42.6918C113.322 43.2945 114.037 44.08 114.537 45.048C115.038 45.9979 115.309 47.0116 115.352 48.0893C115.352 48.3267 115.338 48.5003 115.309 48.6099C115.295 48.7012 115.245 48.756 115.159 48.7743L111.363 49.4592C111.291 49.4775 111.234 49.4318 111.191 49.3222C111.148 49.1944 111.098 48.9569 111.041 48.6099C110.912 47.8062 110.691 47.176 110.376 46.7194C110.062 46.2627 109.568 46.0344 108.896 46.0344C108.053 46.0344 107.359 46.4819 106.816 47.3769C106.272 48.2719 105.879 49.3953 105.636 50.747C105.407 52.0986 105.293 53.4777 105.293 54.8842C105.293 56.1993 105.465 57.1126 105.808 57.624C106.165 58.1355 106.68 58.3912 107.352 58.3912C108.496 58.3912 109.39 57.7154 110.033 56.3637L110.14 56.1445C110.183 56.0532 110.205 55.9801 110.205 55.9253C110.205 55.8157 110.112 55.7609 109.926 55.7609H107.867C107.767 55.7609 107.702 55.7335 107.674 55.6787C107.645 55.6057 107.638 55.4869 107.652 55.3225L107.91 52.4183C107.924 52.1808 108.01 52.0621 108.167 52.0621L114.73 52.1169C114.945 52.1169 115.08 52.1534 115.138 52.2265C115.195 52.2996 115.209 52.4548 115.181 52.6923L114.151 62.0078C114.122 62.2635 113.994 62.3914 113.765 62.3914H113.014C112.886 62.3914 112.778 62.364 112.693 62.3092C112.607 62.2361 112.535 62.1083 112.478 61.9256L111.835 60.3091C111.792 60.1995 111.727 60.1447 111.642 60.1447C111.556 60.1447 111.449 60.2269 111.32 60.3913C110.805 61.0489 110.205 61.5968 109.518 62.0352C108.846 62.4553 107.967 62.6654 106.88 62.6654Z" fill="#143157"/>
<path d="M114.553 62.3914C114.381 62.3914 114.296 62.3001 114.296 62.1174C114.296 61.9713 114.374 61.679 114.532 61.2407L121.802 42.5548C121.888 42.3538 121.988 42.226 122.103 42.1712C122.231 42.0981 122.403 42.0616 122.617 42.0616H126.843C127.014 42.0616 127.136 42.1438 127.207 42.3082C127.279 42.4543 127.336 42.6644 127.379 42.9383L130.489 61.5968C130.503 61.6516 130.51 61.7338 130.51 61.8434C130.51 62.2087 130.396 62.3914 130.167 62.3914H125.963C125.763 62.3914 125.627 62.1905 125.556 61.7886L125.062 58.6926C125.048 58.6013 125.02 58.5373 124.977 58.5008C124.948 58.4643 124.884 58.446 124.784 58.446H120.28C120.179 58.446 120.101 58.4734 120.044 58.5282C119.986 58.583 119.929 58.6743 119.872 58.8022L118.585 62.1174C118.542 62.227 118.485 62.3001 118.414 62.3366C118.356 62.3731 118.256 62.3914 118.113 62.3914H114.553ZM124.205 53.7882C124.448 53.7882 124.533 53.6056 124.462 53.2402L123.69 48.6647C123.676 48.482 123.625 48.3907 123.54 48.3907C123.482 48.3907 123.418 48.4729 123.347 48.6373L121.566 53.3498C121.524 53.4594 121.502 53.5508 121.502 53.6238C121.502 53.7334 121.588 53.7882 121.759 53.7882H124.205Z" fill="#143157"/>
<path d="M130.118 42.5274C130.147 42.3447 130.189 42.226 130.247 42.1712C130.318 42.0981 130.44 42.0616 130.611 42.0616H143.652C143.823 42.0616 143.931 42.0981 143.973 42.1712C144.016 42.226 144.023 42.3447 143.995 42.5274L143.609 46.1166C143.594 46.2627 143.552 46.3632 143.48 46.418C143.423 46.4545 143.323 46.4728 143.18 46.4728H139.384C139.241 46.4728 139.148 46.5002 139.105 46.555C139.062 46.6098 139.026 46.7285 138.997 46.9111L137.346 61.8708C137.332 62.0717 137.289 62.2087 137.217 62.2818C137.16 62.3549 137.067 62.3914 136.938 62.3914H132.906C132.62 62.3914 132.477 62.2453 132.477 61.953C132.477 61.8434 132.484 61.7521 132.499 61.679L134.15 46.8016V46.7194C134.15 46.555 134.079 46.4728 133.936 46.4728H130.097C129.939 46.4728 129.832 46.4454 129.775 46.3906C129.732 46.3175 129.718 46.1988 129.732 46.0344L130.118 42.5274Z" fill="#143157"/>
<path d="M149.015 62.6654C147.599 62.6654 146.377 62.3183 145.347 61.6242C144.332 60.9119 143.553 59.9073 143.01 58.6104C142.466 57.3135 142.195 55.7792 142.195 54.0074C142.195 53.2402 142.23 52.5644 142.302 51.9799C142.531 49.9341 143.038 48.1441 143.825 46.6098C144.611 45.0572 145.619 43.8699 146.849 43.0479C148.078 42.2077 149.451 41.7876 150.967 41.7876C152.354 41.7876 153.555 42.1529 154.57 42.8835C155.6 43.5959 156.386 44.6188 156.929 45.9522C157.473 47.2673 157.744 48.8108 157.744 50.5826C157.744 51.3497 157.709 52.0164 157.637 52.5827C157.408 54.6284 156.901 56.4094 156.114 57.9254C155.342 59.4415 154.341 60.6105 153.112 61.4324C151.896 62.2544 150.531 62.6654 149.015 62.6654ZM149.144 58.3912C150.116 58.3912 150.874 57.898 151.417 56.9117C151.961 55.9253 152.354 54.3088 152.597 52.0621C152.711 50.9479 152.768 50.0437 152.768 49.3496C152.768 48.1624 152.618 47.313 152.318 46.8016C152.018 46.2718 151.532 46.007 150.86 46.007C149.887 46.007 149.122 46.5367 148.565 47.5961C148.007 48.6373 147.599 50.3269 147.342 52.6649C147.228 53.7426 147.17 54.6102 147.17 55.2677C147.17 56.4002 147.321 57.2039 147.621 57.6788C147.935 58.1537 148.443 58.3912 149.144 58.3912Z" fill="#143157"/>
<path d="M171.262 61.6516C171.291 61.743 171.305 61.8526 171.305 61.9804C171.305 62.2544 171.169 62.3914 170.898 62.3914H166.737C166.58 62.3914 166.458 62.3457 166.372 62.2544C166.287 62.1448 166.222 61.953 166.179 61.679L164.935 54.6102C164.907 54.5006 164.871 54.4275 164.828 54.391C164.799 54.3362 164.728 54.3088 164.614 54.3088H163.327C163.212 54.3088 163.134 54.3362 163.091 54.391C163.048 54.4458 163.019 54.528 163.005 54.6376L162.211 61.7612C162.183 62.0352 162.111 62.2087 161.997 62.2818C161.897 62.3549 161.711 62.3914 161.439 62.3914H157.836C157.464 62.3914 157.307 62.1083 157.364 61.542L159.466 42.5274C159.48 42.3264 159.509 42.1986 159.552 42.1438C159.609 42.089 159.702 42.0616 159.831 42.0616H166.994C168.896 42.0616 170.369 42.5274 171.413 43.4589C172.471 44.3722 173 45.6508 173 47.2947C173 48.6281 172.692 49.8611 172.077 50.9935C171.477 52.126 170.69 52.9389 169.718 53.432C169.532 53.5234 169.418 53.6056 169.375 53.6786C169.346 53.7517 169.346 53.8521 169.375 53.98L171.262 61.6516ZM165.9 50.2264C166.487 50.2264 166.973 49.9707 167.359 49.4592C167.759 48.9478 167.959 48.3541 167.959 47.6783C167.959 47.1669 167.809 46.7833 167.509 46.5276C167.223 46.2536 166.851 46.1166 166.394 46.1166H164.206C164.106 46.1166 164.034 46.1531 163.992 46.2262C163.949 46.2992 163.913 46.4454 163.884 46.6646L163.52 49.8154V49.9524C163.52 50.062 163.534 50.1351 163.563 50.1716C163.606 50.2081 163.67 50.2264 163.756 50.2264H165.9Z" fill="#143157"/>
<path d="M20.1599 23.0788L41.2129 61.7432L30.5552 61.0422L19.8134 42.5184L16.8321 60.0545L10.0419 59.863L15.4406 25.1678C15.9088 22.1592 18.9308 20.8215 20.1599 23.0788Z" fill="#2F5F9F"/>
<path d="M38.2844 54.8333L17.2266 16.1768L27.8839 16.873L38.6279 35.3926L41.6065 17.8544L48.3964 18.0429L43.0029 52.7422C42.5353 55.7511 39.5138 57.0901 38.2844 54.8333Z" fill="#F5B741"/>
</svg>
